<svg width="70" height="70" viewBox="0 0 70 70" fill="none" xmlns="http://www.w3.org/2000/svg">
<g clip-path="url(#clip0_8_178)">
<path d="M68.0434 4.34779H67.1014V1.08691C67.1014 0.486582 66.6149 0 66.0145 0H57.6088C57.0083 0 56.5219 0.486719 56.5219 1.08691V4.34779H55.29C54.6896 4.34779 54.2031 4.83451 54.2031 5.43471V8.91297C54.2031 9.5133 54.6897 9.99988 55.29 9.99988H56.5219V13.2608C56.5219 13.8611 57.0084 14.3477 57.6088 14.3477C58.2092 14.3477 58.6957 13.861 58.6957 13.2608V10H64.9276V25.7246C64.9276 32.3174 59.5639 37.681 52.9711 37.681H44.7828V31.1593H53.261C56.2577 31.1593 58.6958 28.7213 58.6958 25.7245V19.0578C58.6958 18.4574 58.2092 17.9709 57.6089 17.9709C57.0084 17.9709 56.522 18.4576 56.522 19.0578V25.7245C56.522 27.5226 55.0591 28.9853 53.2611 28.9853H44.7829V27.4636C44.7829 26.8633 44.2963 26.3767 43.696 26.3767H40.2177C39.6173 26.3767 39.1308 26.8635 39.1308 27.4636V28.9853H36.6666V21.3042H37.833C38.3075 22.9749 39.8459 24.2028 41.6665 24.2028C43.864 24.2028 45.652 22.4149 45.652 20.2173C45.652 18.0197 43.864 16.2318 41.6665 16.2318C39.8459 16.2318 38.3074 17.4597 37.833 19.1304H33.3263C32.8517 17.4597 31.3134 16.2318 29.4927 16.2318C27.2952 16.2318 25.5072 18.0197 25.5072 20.2173C25.5072 22.4149 27.2952 24.2028 29.4927 24.2028C31.3134 24.2028 32.8519 22.9749 33.3263 21.3042H34.4926V28.9853H32.0288V27.4636C32.0288 26.8633 31.5423 26.3767 30.9419 26.3767H27.4637C26.8632 26.3767 26.3767 26.8635 26.3767 27.4636V28.9853H17.3187C9.52712 28.9853 3.18829 35.3242 3.18829 43.1158V48.0432C3.18829 48.6436 3.67487 49.1301 4.2752 49.1301C4.87567 49.1301 5.36212 48.6434 5.36212 48.0432V43.1158C5.36212 36.5229 10.7259 31.1593 17.3186 31.1593H26.3766V37.681H17.0287C14.0319 37.681 11.5939 40.119 11.5939 43.1159V59.7101H5.36239V53.8405C5.36239 53.2402 4.87581 52.7536 4.27548 52.7536C3.67501 52.7536 3.18856 53.2403 3.18856 53.8405V59.7101H1.95673C1.35626 59.7101 0.869812 60.1968 0.869812 60.797V64.2753C0.869812 64.8756 1.35639 65.3622 1.95673 65.3622H3.18856V68.6231C3.18856 69.2234 3.67514 69.71 4.27548 69.71H12.6812C13.2817 69.71 13.7681 69.2233 13.7681 68.6231V65.3622H14.7101C15.3106 65.3622 15.797 64.8755 15.797 64.2753V60.797C15.797 60.1967 15.3105 59.7101 14.7101 59.7101H13.7681V43.1159C13.7681 41.3178 15.231 39.855 17.029 39.855H26.3769V41.3767C26.3769 41.977 26.8635 42.4636 27.4638 42.4636H30.9421C31.5425 42.4636 32.029 41.9769 32.029 41.3767V39.855H39.1304V41.3767C39.1304 41.977 39.617 42.4636 40.2173 42.4636H43.6956C44.2961 42.4636 44.7825 41.9769 44.7825 41.3767V39.855H52.9709C60.7625 39.855 67.1013 33.5162 67.1013 25.7246V10H68.0433C68.6438 10 69.1302 9.5133 69.1302 8.91311V5.43484C69.1305 4.83451 68.6439 4.34779 68.0434 4.34779ZM41.6667 18.4058C42.6657 18.4058 43.4783 19.2184 43.4783 20.2174C43.4783 21.2164 42.6657 22.0289 41.6667 22.0289C40.6677 22.0289 39.8552 21.2163 39.8552 20.2174C39.8552 19.2186 40.6677 18.4058 41.6667 18.4058ZM29.4927 22.0289C28.4937 22.0289 27.681 21.2163 27.681 20.2174C27.681 19.2186 28.4937 18.4058 29.4927 18.4058C30.4917 18.4058 31.3042 19.2184 31.3042 20.2174C31.3042 21.2164 30.4917 22.0289 29.4927 22.0289ZM11.5942 67.5362H5.36239V65.3622H11.5943L11.5942 67.5362ZM13.6232 63.1884H3.0435V61.8841H13.6232V63.1884ZM29.8551 40.2899H28.5508V28.5508H29.8551V40.2899ZM39.1304 37.6812H32.029V31.1594H39.1304V37.6812ZM42.6087 40.2899H41.3044V28.5508H42.6087V40.2899ZM58.6957 2.17396H64.9276V4.34793H58.6957V2.17396ZM66.9565 7.82605H56.3768V6.52176H66.9565V7.82605Z" fill="black"/>
<path d="M41.2393 50.9721C40.9354 50.4542 40.2694 50.2807 39.7518 50.5845C39.2339 50.8883 39.0605 51.5542 39.3642 52.072C42.4394 57.3138 42.8985 59.607 42.8985 60.5073C42.8985 64.5429 39.6154 67.8261 35.5797 67.8261C31.544 67.8261 28.2609 64.5429 28.2609 60.5073C28.2609 57.3813 32.9365 49.9775 35.5772 46.1616C35.9632 46.7207 36.4511 47.4398 36.9898 48.261C37.319 48.763 37.9931 48.903 38.4948 48.5738C38.9968 48.2447 39.1368 47.5707 38.8076 47.0686C37.4942 45.066 36.501 43.6946 36.4595 43.6371C36.0326 43.0487 35.1266 43.0487 34.6996 43.6371C33.8182 44.8527 26.0869 55.6524 26.0869 60.5073C26.0869 65.7417 30.3453 70.0001 35.5797 70.0001C40.8141 70.0001 45.0725 65.7417 45.0725 60.5073C45.0725 58.4877 43.8186 55.3686 41.2393 50.9721Z" fill="black"/>
<path d="M38.2393 52.7322C37.9353 52.2143 37.2695 52.041 36.7518 52.3446C36.2339 52.6484 36.0605 53.3144 36.3642 53.8321C39.3122 58.8575 39.4174 60.4549 39.4202 60.5071C39.4202 62.6248 37.6973 64.3477 35.5797 64.3477C34.9792 64.3477 34.4928 64.8344 34.4928 65.4346C34.4928 66.0348 34.9793 66.5215 35.5797 66.5215C38.8961 66.5215 41.5942 63.8234 41.5942 60.507C41.5942 60.0248 41.3524 58.0387 38.2393 52.7322Z" fill="black"/>
</g>
<defs>
<clipPath id="clip0_8_178">
<rect width="70" height="70" fill="white"/>
</clipPath>
</defs>
</svg>
